<svg width="40" height="44" viewBox="0 0 20 24" fill="none" xmlns="http://www.w3.org/2000/svg">
<path d="M3.84495 1.28166C2.42929 1.28166 1.28166 2.42928 1.28166 3.84495V19.2248C1.28166 20.6404 2.42928 21.7881 3.84495 21.7881H15.3798C16.7955 21.7881 17.9431 20.6404 17.9431 19.2248V3.84495C17.9431 2.42929 16.7955 1.28166 15.3798 1.28166H3.84495ZM3.84495 0H15.3798C17.5033 0 19.2248 1.72145 19.2248 3.84495V19.2248C19.2248 21.3483 17.5033 23.0697 15.3798 23.0697H3.84495C1.72145 23.0697 0 21.3483 0 19.2248V3.84495C0 1.72145 1.72145 0 3.84495 0ZM5.12661 3.84495C4.41878 3.84495 3.84495 4.41877 3.84495 5.12661V6.40825C3.84495 7.11608 4.41877 7.68991 5.12661 7.68991H14.0982C14.806 7.68991 15.3798 7.1161 15.3798 6.40825V5.12661C15.3798 4.41878 14.806 3.84495 14.0982 3.84495H5.12661ZM5.12661 2.5633H14.0982C15.5138 2.5633 16.6615 3.71093 16.6615 5.12661V6.40825C16.6615 7.82393 15.5138 8.97156 14.0982 8.97156H5.12661C3.71093 8.97156 2.5633 7.82393 2.5633 6.40825V5.12661C2.5633 3.71093 3.71093 2.5633 5.12661 2.5633ZM3.84495 10.2532H5.12661C5.83444 10.2532 6.40825 10.827 6.40825 11.5349C6.40825 12.2427 5.83444 12.8165 5.12661 12.8165H3.84495C3.13712 12.8165 2.5633 12.2427 2.5633 11.5349C2.5633 10.827 3.13712 10.2532 3.84495 10.2532ZM8.97156 10.2532H10.2532C10.961 10.2532 11.5349 10.827 11.5349 11.5349C11.5349 12.2427 10.9611 12.8165 10.2532 12.8165H8.97156C8.26373 12.8165 7.68991 12.2427 7.68991 11.5349C7.68991 10.827 8.26372 10.2532 8.97156 10.2532ZM14.0982 10.2532H15.3798C16.0876 10.2532 16.6615 10.827 16.6615 11.5349C16.6615 12.2427 16.0876 12.8165 15.3798 12.8165H14.0982C13.3903 12.8165 12.8165 12.2427 12.8165 11.5349C12.8165 10.827 13.3903 10.2532 14.0982 10.2532ZM3.84495 14.0982H5.12661C5.83444 14.0982 6.40825 14.672 6.40825 15.3798C6.40825 16.0876 5.83444 16.6615 5.12661 16.6615H3.84495C3.13712 16.6615 2.5633 16.0876 2.5633 15.3798C2.5633 14.672 3.13712 14.0982 3.84495 14.0982ZM8.97156 14.0982H10.2532C10.961 14.0982 11.5349 14.672 11.5349 15.3798C11.5349 16.0876 10.9611 16.6615 10.2532 16.6615H8.97156C8.26373 16.6615 7.68991 16.0876 7.68991 15.3798C7.68991 14.672 8.26372 14.0982 8.97156 14.0982ZM14.0982 14.0982H15.3798C16.0876 14.0982 16.6615 14.672 16.6615 15.3798C16.6615 16.0876 16.0876 16.6615 15.3798 16.6615H14.0982C13.3903 16.6615 12.8165 16.0876 12.8165 15.3798C12.8165 14.672 13.3903 14.0982 14.0982 14.0982ZM3.84495 17.9431H5.12661C5.83444 17.9431 6.40825 18.5169 6.40825 19.2248C6.40825 19.9326 5.83444 20.5064 5.12661 20.5064H3.84495C3.13712 20.5064 2.5633 19.9326 2.5633 19.2248C2.5633 18.5169 3.13712 17.9431 3.84495 17.9431ZM8.97156 17.9431H10.2532C10.961 17.9431 11.5349 18.5169 11.5349 19.2248C11.5349 19.9326 10.9611 20.5064 10.2532 20.5064H8.97156C8.26373 20.5064 7.68991 19.9326 7.68991 19.2248C7.68991 18.5169 8.26372 17.9431 8.97156 17.9431ZM14.0982 17.9431H15.3798C16.0876 17.9431 16.6615 18.5169 16.6615 19.2248C16.6615 19.9326 16.0876 20.5064 15.3798 20.5064H14.0982C13.3903 20.5064 12.8165 19.9326 12.8165 19.2248C12.8165 18.5169 13.3903 17.9431 14.0982 17.9431Z" fill="#999999"/>
</svg>
