<svg width="40" height="40" viewBox="0 0 25 25" fill="none" xmlns="http://www.w3.org/2000/svg">
<path fill-rule="evenodd" clip-rule="evenodd" d="M12.5007 0L0 12.1375L1.05943 13.1632L12.5007 2.05439L23.9421 13.1632L25 12.1375L12.5007 0ZM20.7307 13.3768V23.5471H16.24V16.2826H8.75965V23.5471H4.27051V13.3768H2.77264V25H22.2271V13.3768H20.7307ZM14.7452 17.7355V23.5486H10.256V17.7355H14.7452ZM12.5003 9.01828C13.3263 9.01828 13.9967 9.66918 13.9967 10.4712C13.9967 11.2732 13.3263 11.9241 12.5003 11.9241C11.6743 11.9241 11.0039 11.2732 11.0039 10.4712C11.0039 9.66918 11.6743 9.01828 12.5003 9.01828ZM15.4931 10.4712C15.4931 8.86863 14.1508 7.56538 12.5003 7.56538C10.8498 7.56538 9.50754 8.86863 9.50754 10.4712C9.50754 12.0737 10.8498 13.377 12.5003 13.377C14.1508 13.377 15.4931 12.0737 15.4931 10.4712Z" fill="#999999"/>
</svg>
