<svg width="40" height="40" viewBox="0 0 19 19" fill="none" xmlns="http://www.w3.org/2000/svg">
<path d="M10.1333 0.633333C10.1333 0.283553 9.84978 0 9.5 0C9.15022 0 8.86667 0.283553 8.86667 0.633333V3.19794C9.07497 3.17726 9.28625 3.16667 9.5 3.16667C9.71375 3.16667 9.92503 3.17726 10.1333 3.19794V0.633333Z" fill="#999999"/>
<path d="M3.67815 2.78249L5.4918 4.59614C5.1643 4.86414 4.86414 5.1643 4.59613 5.4918L2.78249 3.67815C2.53515 3.43082 2.53515 3.02982 2.78249 2.78249C3.02982 2.53515 3.43082 2.53515 3.67815 2.78249Z" fill="#999999"/>
<path d="M3.19794 8.86667H0.633333C0.283553 8.86667 0 9.15022 0 9.5C0 9.84978 0.283553 10.1333 0.633333 10.1333H3.19794C3.17726 9.92503 3.16667 9.71375 3.16667 9.5C3.16667 9.28625 3.17726 9.07497 3.19794 8.86667Z" fill="#999999"/>
<path d="M2.78249 15.3218L4.59613 13.5082C4.86414 13.8357 5.1643 14.1359 5.4918 14.4039L3.67815 16.2175C3.43082 16.4648 3.02982 16.4648 2.78249 16.2175C2.53515 15.9702 2.53515 15.5692 2.78249 15.3218Z" fill="#999999"/>
<path d="M8.86667 15.8021V18.3667C8.86667 18.7164 9.15022 19 9.5 19C9.84978 19 10.1333 18.7164 10.1333 18.3667V15.8021C9.92503 15.8227 9.71375 15.8333 9.5 15.8333C9.28625 15.8333 9.07497 15.8227 8.86667 15.8021Z" fill="#999999"/>
<path d="M15.3218 16.2175L13.5082 14.4039C13.8357 14.1359 14.1359 13.8357 14.4039 13.5082L16.2175 15.3218C16.4648 15.5692 16.4648 15.9702 16.2175 16.2175C15.9702 16.4648 15.5692 16.4648 15.3218 16.2175Z" fill="#999999"/>
<path d="M15.8021 10.1333H18.3667C18.7164 10.1333 19 9.84978 19 9.5C19 9.15022 18.7164 8.86667 18.3667 8.86667H15.8021C15.8227 9.07497 15.8333 9.28625 15.8333 9.5C15.8333 9.71375 15.8227 9.92502 15.8021 10.1333Z" fill="#999999"/>
<path d="M16.2175 3.67815L14.4039 5.4918C14.1359 5.1643 13.8357 4.86414 13.5082 4.59613L15.3218 2.78249C15.5692 2.53515 15.9702 2.53515 16.2175 2.78249C16.4648 3.02982 16.4648 3.43082 16.2175 3.67815Z" fill="#999999"/>
<path fill-rule="evenodd" clip-rule="evenodd" d="M14.5667 9.5C14.5667 12.2982 12.2982 14.5667 9.5 14.5667C6.70176 14.5667 4.43333 12.2982 4.43333 9.5C4.43333 6.70176 6.70176 4.43333 9.5 4.43333C12.2982 4.43333 14.5667 6.70176 14.5667 9.5ZM13.3 9.5C13.3 11.5987 11.5987 13.3 9.5 13.3C7.40132 13.3 5.7 11.5987 5.7 9.5C5.7 7.40132 7.40132 5.7 9.5 5.7C11.5987 5.7 13.3 7.40132 13.3 9.5Z" fill="#999999"/>
</svg>
