<svg width="20" height="20" viewBox="0 0 20 20" fill="none" xmlns="http://www.w3.org/2000/svg">
<path fill-rule="evenodd" clip-rule="evenodd" d="M11.7647 12.9412V14.1176H3.52942V12.9412H11.7647ZM16.4706 9.41176V10.5882H3.52942V9.41176H16.4706ZM6.47058 0C7.44353 0 8.23529 0.791771 8.23529 1.76471C8.23529 2.03648 8.16824 2.29058 8.05883 2.52117L10.4165 4.87766L9.58352 5.71059L7.22705 3.35295C6.99646 3.46236 6.74117 3.52943 6.47057 3.52943C5.49764 3.52943 4.70588 2.73766 4.70588 1.76472C4.70589 0.79176 5.49766 0 6.47058 0ZM3.58824 2.35294C3.85882 3.69411 5.04706 4.70589 6.47058 4.70589C6.61176 4.70589 6.75294 4.69411 6.88235 4.67058L9.58823 7.37647L12.0823 4.88235L9.55293 2.35294H20V14.1176H14.1176V20H0V2.35294H3.58824ZM19.9235 15.2942L15.2941 19.9225V15.2942H19.9235Z" fill="#999999"/>
</svg>
